<svg width="41" height="64" viewBox="0 0 41 64" fill="none" xmlns="http://www.w3.org/2000/svg">
<g clip-path="url(#clip0_95_398)">
<g filter="url(#filter0_f_95_398)">
<ellipse cx="20.0885" cy="58.7781" rx="6.69618" ry="3.7201" fill="black" fill-opacity="0.12"/>
</g>
<mask id="path-2-outside-1_95_398" maskUnits="userSpaceOnUse" x="-0.511719" y="-0.512329" width="41" height="61" fill="black">
<rect fill="white" x="-0.511719" y="-0.512329" width="41" height="61"/>
<path fill-rule="evenodd" clip-rule="evenodd" d="M20.0889 38.6887C20.0889 38.6887 20.0888 38.6887 20.0888 38.6887H20.0881V58.0334C19.2663 58.0334 18.6 57.3672 18.6 56.5453C18.6 46.1715 12.7965 39.8155 8.45136 35.0567L8.45131 35.0566C7.19213 33.6776 6.05543 32.4327 5.21793 31.263C2.87626 28.1518 1.48828 24.2821 1.48828 20.0882C1.48828 9.8154 9.81601 1.48767 20.0888 1.48767C30.3616 1.48767 38.6893 9.8154 38.6893 20.0882C38.6893 24.2888 37.2968 28.1643 34.9483 31.2781C34.1118 32.4434 32.9794 33.6836 31.7257 35.0567C27.3805 39.8155 21.577 46.1715 21.577 56.5453C21.577 57.3672 20.9108 58.0334 20.0889 58.0334V38.6887Z"/>
</mask>
<path fill-rule="evenodd" clip-rule="evenodd" d="M20.0889 38.6887C20.0889 38.6887 20.0888 38.6887 20.0888 38.6887H20.0881V58.0334C19.2663 58.0334 18.6 57.3672 18.6 56.5453C18.6 46.1715 12.7965 39.8155 8.45136 35.0567L8.45131 35.0566C7.19213 33.6776 6.05543 32.4327 5.21793 31.263C2.87626 28.1518 1.48828 24.2821 1.48828 20.0882C1.48828 9.8154 9.81601 1.48767 20.0888 1.48767C30.3616 1.48767 38.6893 9.8154 38.6893 20.0882C38.6893 24.2888 37.2968 28.1643 34.9483 31.2781C34.1118 32.4434 32.9794 33.6836 31.7257 35.0567C27.3805 39.8155 21.577 46.1715 21.577 56.5453C21.577 57.3672 20.9108 58.0334 20.0889 58.0334V38.6887Z" fill="#EA352B"/>
<path d="M20.0889 38.6887H21.577V37.2006H20.0889V38.6887ZM20.0881 38.6887V37.2006H18.6V38.6887H20.0881ZM20.0881 58.0334V59.5214H21.5761V58.0334H20.0881ZM8.45136 35.0567L9.55026 34.0533L9.54373 34.0463L8.45136 35.0567ZM8.45131 35.0566L7.35241 36.06L7.35894 36.0671L8.45131 35.0566ZM5.21793 31.263L6.42781 30.3967L6.4175 30.3823L6.40684 30.3681L5.21793 31.263ZM34.9483 31.2781L33.7602 30.382L33.7497 30.3961L33.7394 30.4104L34.9483 31.2781ZM31.7257 35.0567L30.6268 34.0533L30.6268 34.0533L31.7257 35.0567ZM20.0889 58.0334H18.6009V59.5214H20.0889V58.0334ZM20.0888 40.1767C20.0888 40.1767 20.0888 40.1767 20.0888 40.1767C20.0888 40.1767 20.0888 40.1767 20.0888 40.1767C20.0888 40.1767 20.0888 40.1767 20.0888 40.1767C20.0888 40.1767 20.0888 40.1767 20.0888 40.1767C20.0888 40.1767 20.0888 40.1767 20.0888 40.1767C20.0888 40.1767 20.0888 40.1767 20.0888 40.1767C20.0888 40.1767 20.0888 40.1767 20.0888 40.1767C20.0888 40.1767 20.0888 40.1767 20.0888 40.1767C20.0888 40.1767 20.0888 40.1767 20.0888 40.1767C20.0888 40.1767 20.0888 40.1767 20.0888 40.1767C20.0888 40.1767 20.0888 40.1767 20.0888 40.1767C20.0888 40.1767 20.0888 40.1767 20.0888 40.1767C20.0888 40.1767 20.0888 40.1767 20.0888 40.1767C20.0888 40.1767 20.0888 40.1767 20.0888 40.1767C20.0888 40.1767 20.0888 40.1767 20.0888 40.1767C20.0888 40.1767 20.0888 40.1767 20.0888 40.1767C20.0888 40.1767 20.0888 40.1767 20.0888 40.1767C20.0888 40.1767 20.0888 40.1767 20.0888 40.1767C20.0888 40.1767 20.0888 40.1767 20.0888 40.1767C20.0888 40.1767 20.0888 40.1767 20.0888 40.1767C20.0888 40.1767 20.0888 40.1767 20.0888 40.1767C20.0888 40.1767 20.0888 40.1767 20.0888 40.1767C20.0888 40.1767 20.0888 40.1767 20.0888 40.1767C20.0888 40.1767 20.0888 40.1767 20.0888 40.1767C20.0888 40.1767 20.0888 40.1767 20.0888 40.1767C20.0888 40.1767 20.0888 40.1767 20.0888 40.1767C20.0888 40.1767 20.0888 40.1767 20.0888 40.1767C20.0888 40.1767 20.0888 40.1767 20.0888 40.1767C20.0888 40.1767 20.0888 40.1767 20.0888 40.1767C20.0888 40.1767 20.0888 40.1767 20.0888 40.1767C20.0888 40.1767 20.0888 40.1767 20.0888 40.1767C20.0888 40.1767 20.0888 40.1767 20.0888 40.1767C20.0888 40.1767 20.0888 40.1767 20.0888 40.1767C20.0888 40.1767 20.0888 40.1767 20.0888 40.1767C20.0888 40.1767 20.0888 40.1767 20.0888 40.1767C20.0888 40.1767 20.0888 40.1767 20.0888 40.1767C20.0888 40.1767 20.0888 40.1767 20.0888 40.1767C20.0888 40.1767 20.0888 40.1767 20.0888 40.1767C20.0888 40.1767 20.0888 40.1767 20.0888 40.1767C20.0888 40.1767 20.0888 40.1767 20.0888 40.1767C20.0888 40.1767 20.0888 40.1767 20.0888 40.1767C20.0888 40.1767 20.0888 40.1767 20.0888 40.1767C20.0888 40.1767 20.0888 40.1767 20.0888 40.1767C20.0888 40.1767 20.0888 40.1767 20.0888 40.1767C20.0888 40.1767 20.0888 40.1767 20.0888 40.1767C20.0888 40.1767 20.0888 40.1767 20.0888 40.1767C20.0888 40.1767 20.0888 40.1767 20.0888 40.1767C20.0888 40.1767 20.0888 40.1767 20.0888 40.1767C20.0888 40.1767 20.0888 40.1767 20.0888 40.1767C20.0888 40.1767 20.0888 40.1767 20.0888 40.1767C20.0888 40.1767 20.0888 40.1767 20.0888 40.1767C20.0888 40.1767 20.0888 40.1767 20.0888 40.1767C20.0888 40.1767 20.0888 40.1767 20.0888 40.1767C20.0888 40.1767 20.0888 40.1767 20.0888 40.1767C20.0888 40.1767 20.0888 40.1767 20.0888 40.1767C20.0888 40.1767 20.0888 40.1767 20.0888 40.1767C20.0888 40.1767 20.0888 40.1767 20.0888 40.1767C20.0888 40.1767 20.0888 40.1767 20.0888 40.1767C20.0888 40.1767 20.0888 40.1767 20.0888 40.1767C20.0888 40.1767 20.0888 40.1767 20.0888 40.1767C20.0888 40.1767 20.0888 40.1767 20.0888 40.1767C20.0888 40.1767 20.0888 40.1767 20.0888 40.1767C20.0888 40.1767 20.0888 40.1767 20.0888 40.1767C20.0888 40.1767 20.0888 40.1767 20.0888 40.1767C20.0888 40.1767 20.0888 40.1767 20.0888 40.1767C20.0888 40.1767 20.0888 40.1767 20.0888 40.1767C20.0888 40.1767 20.0888 40.1767 20.0888 40.1767C20.0888 40.1767 20.0888 40.1767 20.0888 40.1767C20.0888 40.1767 20.0888 40.1767 20.0888 40.1767C20.0888 40.1767 20.0888 40.1767 20.0888 40.1767C20.0888 40.1767 20.0888 40.1767 20.0888 40.1767C20.0888 40.1767 20.0888 40.1767 20.0888 40.1767C20.0888 40.1767 20.0888 40.1767 20.0888 40.1767C20.0888 40.1767 20.0888 40.1767 20.0888 40.1767C20.0888 40.1767 20.0888 40.1767 20.0888 40.1767C20.0888 40.1767 20.0888 40.1767 20.0888 40.1767C20.0888 40.1767 20.0888 40.1767 20.0888 40.1767C20.0888 40.1767 20.0888 40.1767 20.0888 40.1767C20.0888 40.1767 20.0888 40.1767 20.0888 40.1767C20.0888 40.1767 20.0888 40.1767 20.0888 40.1767C20.0888 40.1767 20.0888 40.1767 20.0888 40.1767C20.0888 40.1767 20.0888 40.1767 20.0888 40.1767C20.0888 40.1767 20.0888 40.1767 20.0888 40.1767C20.0888 40.1767 20.0888 40.1767 20.0888 40.1767C20.0888 40.1767 20.0888 40.1767 20.0888 40.1767C20.0888 40.1767 20.0888 40.1767 20.0888 40.1767C20.0888 40.1767 20.0888 40.1767 20.0888 40.1767C20.0888 40.1767 20.0888 40.1767 20.0888 40.1767C20.0888 40.1767 20.0888 40.1767 20.0888 40.1767C20.0888 40.1767 20.0888 40.1767 20.0888 40.1767C20.0888 40.1767 20.0888 40.1767 20.0888 40.1767C20.0888 40.1767 20.0888 40.1767 20.0888 40.1767C20.0888 40.1767 20.0888 40.1767 20.0888 40.1767C20.0888 40.1767 20.0888 40.1767 20.0888 40.1767C20.0888 40.1767 20.0888 40.1767 20.0888 40.1767C20.0888 40.1767 20.0888 40.1767 20.0888 40.1767C20.0888 40.1767 20.0888 40.1767 20.0888 40.1767C20.0888 40.1767 20.0888 40.1767 20.0888 40.1767C20.0888 40.1767 20.0888 40.1767 20.0888 40.1767C20.0888 40.1767 20.0888 40.1767 20.0888 40.1767C20.0888 40.1767 20.0888 40.1767 20.0888 40.1767C20.0888 40.1767 20.0888 40.1767 20.0888 40.1767C20.0888 40.1767 20.0888 40.1767 20.0888 40.1767C20.0888 40.1767 20.0888 40.1767 20.0888 40.1767C20.0888 40.1767 20.0888 40.1767 20.0888 40.1767C20.0888 40.1767 20.0888 40.1767 20.0888 40.1767C20.0888 40.1767 20.0888 40.1767 20.0888 40.1767C20.0888 40.1767 20.0888 40.1767 20.0888 40.1767C20.0888 40.1767 20.0888 40.1767 20.0888 40.1767C20.0888 40.1767 20.0888 40.1767 20.0888 40.1767C20.0888 40.1767 20.0888 40.1767 20.0888 40.1767C20.0888 40.1767 20.0888 40.1767 20.0888 40.1767C20.0888 40.1767 20.0888 40.1767 20.0888 40.1767C20.0888 40.1767 20.0888 40.1767 20.0888 40.1767C20.0888 40.1767 20.0888 40.1767 20.0888 40.1767C20.0888 40.1767 20.0888 40.1767 20.0888 40.1767C20.0888 40.1767 20.0888 40.1767 20.0888 40.1767C20.0888 40.1767 20.0888 40.1767 20.0888 40.1767C20.0888 40.1767 20.0888 40.1767 20.0888 40.1767C20.0888 40.1767 20.0888 40.1767 20.0888 40.1767C20.0888 40.1767 20.0888 40.1767 20.0888 40.1767C20.0888 40.1767 20.0888 40.1767 20.0888 40.1767C20.0888 40.1767 20.0888 40.1767 20.0888 40.1767C20.0888 40.1767 20.0888 40.1767 20.0888 40.1767C20.0888 40.1767 20.0888 40.1767 20.0888 40.1767C20.0888 40.1767 20.0888 40.1767 20.0888 40.1767C20.0888 40.1767 20.0888 40.1767 20.0888 40.1767C20.0888 40.1767 20.0888 40.1767 20.0888 40.1767C20.0888 40.1767 20.0888 40.1767 20.0888 40.1767C20.0888 40.1767 20.0888 40.1767 20.0888 40.1767C20.0888 40.1767 20.0888 40.1767 20.0888 40.1767C20.0888 40.1767 20.0888 40.1767 20.0888 40.1767C20.0888 40.1767 20.0888 40.1767 20.0888 40.1767C20.0888 40.1767 20.0888 40.1767 20.0888 40.1767C20.0888 40.1767 20.0888 40.1767 20.0888 40.1767C20.0888 40.1767 20.0888 40.1767 20.0888 40.1767C20.0888 40.1767 20.0888 40.1767 20.0888 40.1767C20.0888 40.1767 20.0888 40.1767 20.0888 40.1767C20.0888 40.1767 20.0888 40.1767 20.0888 40.1767C20.0888 40.1767 20.0888 40.1767 20.0888 40.1767C20.0888 40.1767 20.0888 40.1767 20.0888 40.1767C20.0888 40.1767 20.0888 40.1767 20.0888 40.1767C20.0888 40.1767 20.0888 40.1767 20.0888 40.1767C20.0888 40.1767 20.0888 40.1767 20.0888 40.1767C20.0888 40.1767 20.0888 40.1767 20.0888 40.1767C20.0888 40.1767 20.0888 40.1767 20.0888 40.1767C20.0888 40.1767 20.0888 40.1767 20.0888 40.1767C20.0888 40.1767 20.0888 40.1767 20.0888 40.1767C20.0888 40.1767 20.0888 40.1767 20.0888 40.1767C20.0888 40.1767 20.0888 40.1767 20.0888 40.1767C20.0888 40.1767 20.0888 40.1767 20.0888 40.1767C20.0888 40.1767 20.0888 40.1767 20.0888 40.1767C20.0888 40.1767 20.0888 40.1767 20.0888 40.1767C20.0888 40.1767 20.0888 40.1767 20.0888 40.1767C20.0888 40.1767 20.0888 40.1767 20.0888 40.1767C20.0888 40.1767 20.0888 40.1767 20.0888 40.1767C20.0888 40.1767 20.0888 40.1767 20.0888 40.1767C20.0888 40.1767 20.0888 40.1767 20.0888 40.1767C20.0888 40.1767 20.0888 40.1767 20.0888 40.1767C20.0888 40.1767 20.0888 40.1767 20.0888 40.1767C20.0888 40.1767 20.0888 40.1767 20.0888 40.1767C20.0888 40.1767 20.0888 40.1767 20.0888 40.1767C20.0888 40.1767 20.0888 40.1767 20.0888 40.1767C20.0888 40.1767 20.0888 40.1767 20.0888 40.1767C20.0888 40.1767 20.0888 40.1767 20.0888 40.1767C20.0888 40.1767 20.0888 40.1767 20.0888 40.1767C20.0888 40.1767 20.0888 40.1767 20.0888 40.1767C20.0888 40.1767 20.0888 40.1767 20.0888 40.1767C20.0888 40.1767 20.0888 40.1767 20.0888 40.1767C20.0888 40.1767 20.0888 40.1767 20.0888 40.1767C20.0888 40.1767 20.0888 40.1767 20.0888 40.1767C20.0888 40.1767 20.0888 40.1767 20.0888 40.1767C20.0888 40.1767 20.0888 40.1767 20.0888 40.1767C20.0888 40.1767 20.0888 40.1767 20.0888 40.1767C20.0888 40.1767 20.0888 40.1767 20.0888 40.1767C20.0888 40.1767 20.0888 40.1767 20.0888 40.1767C20.0888 40.1767 20.0888 40.1767 20.0888 40.1767C20.0888 40.1767 20.0888 40.1767 20.0888 40.1767C20.0888 40.1767 20.0888 40.1767 20.0888 40.1767C20.0888 40.1767 20.0888 40.1767 20.0888 40.1767C20.0888 40.1767 20.0888 40.1767 20.0888 40.1767C20.0888 40.1767 20.0888 40.1767 20.0888 40.1767C20.0888 40.1767 20.0888 40.1767 20.0888 40.1767C20.0888 40.1767 20.0888 40.1767 20.0888 40.1767C20.0888 40.1767 20.0888 40.1767 20.0888 40.1767C20.0888 40.1767 20.0888 40.1767 20.0888 40.1767C20.0888 40.1767 20.0888 40.1767 20.0888 40.1767C20.0888 40.1767 20.0888 40.1767 20.0888 40.1767C20.0888 40.1767 20.0888 40.1767 20.0888 40.1767C20.0888 40.1767 20.0888 40.1767 20.0888 40.1767C20.0888 40.1767 20.0888 40.1767 20.0888 40.1767C20.0888 40.1767 20.0888 40.1767 20.0888 40.1767C20.0888 40.1767 20.0888 40.1767 20.0888 40.1767C20.0888 40.1767 20.0888 40.1767 20.0888 40.1767C20.0888 40.1767 20.0888 40.1767 20.0888 40.1767C20.0888 40.1767 20.0888 40.1767 20.0888 40.1767C20.0888 40.1767 20.0888 40.1767 20.0888 40.1767C20.0888 40.1767 20.0888 40.1767 20.0888 40.1767C20.0888 40.1767 20.0888 40.1767 20.0888 40.1767C20.0888 40.1767 20.0888 40.1767 20.0888 40.1767C20.0888 40.1767 20.0888 40.1767 20.0888 40.1767C20.0888 40.1767 20.0888 40.1767 20.0888 40.1767C20.0888 40.1767 20.0888 40.1767 20.0888 40.1767C20.0888 40.1767 20.0888 40.1767 20.0888 40.1767C20.0888 40.1767 20.0888 40.1767 20.0888 40.1767C20.0888 40.1767 20.0888 40.1767 20.0888 40.1767C20.0888 40.1767 20.0888 40.1767 20.0888 40.1767C20.0888 40.1767 20.0888 40.1767 20.0888 40.1767C20.0888 40.1767 20.0888 40.1767 20.0888 40.1767C20.0888 40.1767 20.0888 40.1767 20.0888 40.1767C20.0888 40.1767 20.0888 40.1767 20.0888 40.1767C20.0888 40.1767 20.0888 40.1767 20.0888 40.1767C20.0888 40.1767 20.0888 40.1767 20.0888 40.1767C20.0888 40.1767 20.0888 40.1767 20.0888 40.1767C20.0888 40.1767 20.0888 40.1767 20.0888 40.1767C20.0888 40.1767 20.0888 40.1767 20.0888 40.1767C20.0888 40.1767 20.0888 40.1767 20.0888 40.1767C20.0888 40.1767 20.0888 40.1767 20.0888 40.1767C20.0888 40.1767 20.0888 40.1767 20.0888 40.1767C20.0888 40.1767 20.0888 40.1767 20.0888 40.1767C20.0888 40.1767 20.0889 40.1767 20.0889 40.1767C20.0889 40.1767 20.0889 40.1767 20.0889 40.1767C20.0889 40.1767 20.0889 40.1767 20.0889 40.1767C20.0889 40.1767 20.0889 40.1767 20.0889 40.1767C20.0889 40.1767 20.0889 40.1767 20.0889 40.1767C20.0889 40.1767 20.0889 40.1767 20.0889 40.1767C20.0889 40.1767 20.0889 40.1767 20.0889 40.1767C20.0889 40.1767 20.0889 40.1767 20.0889 40.1767C20.0889 40.1767 20.0889 40.1767 20.0889 40.1767C20.0889 40.1767 20.0889 40.1767 20.0889 40.1767C20.0889 40.1767 20.0889 40.1767 20.0889 40.1767C20.0889 40.1767 20.0889 40.1767 20.0889 40.1767C20.0889 40.1767 20.0889 40.1767 20.0889 40.1767C20.0889 40.1767 20.0889 40.1767 20.0889 40.1767C20.0889 40.1767 20.0889 40.1767 20.0889 40.1767C20.0889 40.1767 20.0889 40.1767 20.0889 40.1767C20.0889 40.1767 20.0889 40.1767 20.0889 40.1767C20.0889 40.1767 20.0889 40.1767 20.0889 40.1767C20.0889 40.1767 20.0889 40.1767 20.0889 40.1767C20.0889 40.1767 20.0889 40.1767 20.0889 40.1767C20.0889 40.1767 20.0889 40.1767 20.0889 40.1767C20.0889 40.1767 20.0889 40.1767 20.0889 40.1767C20.0889 40.1767 20.0889 40.1767 20.0889 40.1767C20.0889 40.1767 20.0889 40.1767 20.0889 40.1767C20.0889 40.1767 20.0889 40.1767 20.0889 40.1767C20.0889 40.1767 20.0889 40.1767 20.0889 40.1767C20.0889 40.1767 20.0889 40.1767 20.0889 40.1767C20.0889 40.1767 20.0889 40.1767 20.0889 40.1767C20.0889 40.1767 20.0889 40.1767 20.0889 40.1767C20.0889 40.1767 20.0889 40.1767 20.0889 40.1767C20.0889 40.1767 20.0889 40.1767 20.0889 40.1767C20.0889 40.1767 20.0889 40.1767 20.0889 40.1767C20.0889 40.1767 20.0889 40.1767 20.0889 40.1767C20.0889 40.1767 20.0889 40.1767 20.0889 40.1767C20.0889 40.1767 20.0889 40.1767 20.0889 40.1767C20.0889 40.1767 20.0889 40.1767 20.0889 40.1767C20.0889 40.1767 20.0889 40.1767 20.0889 40.1767C20.0889 40.1767 20.0889 40.1767 20.0889 40.1767C20.0889 40.1767 20.0889 40.1767 20.0889 40.1767C20.0889 40.1767 20.0889 40.1767 20.0889 40.1767C20.0889 40.1767 20.0889 40.1767 20.0889 40.1767C20.0889 40.1767 20.0889 40.1767 20.0889 40.1767C20.0889 40.1767 20.0889 40.1767 20.0889 40.1767C20.0889 40.1767 20.0889 40.1767 20.0889 40.1767C20.0889 40.1767 20.0889 40.1767 20.0889 40.1767C20.0889 40.1767 20.0889 40.1767 20.0889 40.1767C20.0889 40.1767 20.0889 40.1767 20.0889 40.1767C20.0889 40.1767 20.0889 40.1767 20.0889 40.1767C20.0889 40.1767 20.0889 40.1767 20.0889 40.1767C20.0889 40.1767 20.0889 40.1767 20.0889 40.1767C20.0889 40.1767 20.0889 40.1767 20.0889 40.1767C20.0889 40.1767 20.0889 40.1767 20.0889 40.1767C20.0889 40.1767 20.0889 40.1767 20.0889 40.1767C20.0889 40.1767 20.0889 40.1767 20.0889 40.1767C20.0889 40.1767 20.0889 40.1767 20.0889 40.1767C20.0889 40.1767 20.0889 40.1767 20.0889 40.1767C20.0889 40.1767 20.0889 40.1767 20.0889 40.1767C20.0889 40.1767 20.0889 40.1767 20.0889 40.1767C20.0889 40.1767 20.0889 40.1767 20.0889 40.1767C20.0889 40.1767 20.0889 40.1767 20.0889 40.1767C20.0889 40.1767 20.0889 40.1767 20.0889 40.1767C20.0889 40.1767 20.0889 40.1767 20.0889 40.1767C20.0889 40.1767 20.0889 40.1767 20.0889 40.1767C20.0889 40.1767 20.0889 40.1767 20.0889 40.1767C20.0889 40.1767 20.0889 40.1767 20.0889 40.1767C20.0889 40.1767 20.0889 40.1767 20.0889 40.1767C20.0889 40.1767 20.0889 40.1767 20.0889 40.1767C20.0889 40.1767 20.0889 40.1767 20.0889 40.1767C20.0889 40.1767 20.0889 40.1767 20.0889 40.1767C20.0889 40.1767 20.0889 40.1767 20.0889 40.1767C20.0889 40.1767 20.0889 40.1767 20.0889 40.1767C20.0889 40.1767 20.0889 40.1767 20.0889 40.1767C20.0889 40.1767 20.0889 40.1767 20.0889 40.1767C20.0889 40.1767 20.0889 40.1767 20.0889 40.1767C20.0889 40.1767 20.0889 40.1767 20.0889 40.1767C20.0889 40.1767 20.0889 40.1767 20.0889 40.1767C20.0889 40.1767 20.0889 40.1767 20.0889 40.1767C20.0889 40.1767 20.0889 40.1767 20.0889 40.1767C20.0889 40.1767 20.0889 40.1767 20.0889 40.1767C20.0889 40.1767 20.0889 40.1767 20.0889 40.1767C20.0889 40.1767 20.0889 40.1767 20.0889 40.1767C20.0889 40.1767 20.0889 40.1767 20.0889 40.1767C20.0889 40.1767 20.0889 40.1767 20.0889 40.1767C20.0889 40.1767 20.0889 40.1767 20.0889 40.1767C20.0889 40.1767 20.0889 40.1767 20.0889 40.1767C20.0889 40.1767 20.0889 40.1767 20.0889 40.1767C20.0889 40.1767 20.0889 40.1767 20.0889 40.1767C20.0889 40.1767 20.0889 40.1767 20.0889 40.1767C20.0889 40.1767 20.0889 40.1767 20.0889 40.1767C20.0889 40.1767 20.0889 40.1767 20.0889 40.1767C20.0889 40.1767 20.0889 40.1767 20.0889 40.1767C20.0889 40.1767 20.0889 40.1767 20.0889 40.1767C20.0889 40.1767 20.0889 40.1767 20.0889 40.1767C20.0889 40.1767 20.0889 40.1767 20.0889 40.1767C20.0889 40.1767 20.0889 40.1767 20.0889 40.1767C20.0889 40.1767 20.0889 40.1767 20.0889 40.1767C20.0889 40.1767 20.0889 40.1767 20.0889 40.1767C20.0889 40.1767 20.0889 40.1767 20.0889 40.1767C20.0889 40.1767 20.0889 40.1767 20.0889 40.1767C20.0889 40.1767 20.0889 40.1767 20.0889 40.1767C20.0889 40.1767 20.0889 40.1767 20.0889 40.1767C20.0889 40.1767 20.0889 40.1767 20.0889 40.1767C20.0889 40.1767 20.0889 40.1767 20.0889 40.1767C20.0889 40.1767 20.0889 40.1767 20.0889 40.1767C20.0889 40.1767 20.0889 40.1767 20.0889 40.1767C20.0889 40.1767 20.0889 40.1767 20.0889 40.1767C20.0889 40.1767 20.0889 40.1767 20.0889 40.1767C20.0889 40.1767 20.0889 40.1767 20.0889 40.1767C20.0889 40.1767 20.0889 40.1767 20.0889 40.1767C20.0889 40.1767 20.0889 40.1767 20.0889 40.1767C20.0889 40.1767 20.0889 40.1767 20.0889 40.1767C20.0889 40.1767 20.0889 40.1767 20.0889 40.1767C20.0889 40.1767 20.0889 40.1767 20.0889 40.1767C20.0889 40.1767 20.0889 40.1767 20.0889 40.1767C20.0889 40.1767 20.0889 40.1767 20.0889 40.1767C20.0889 40.1767 20.0889 40.1767 20.0889 40.1767C20.0889 40.1767 20.0889 40.1767 20.0889 40.1767C20.0889 40.1767 20.0889 40.1767 20.0889 40.1767C20.0889 40.1767 20.0889 40.1767 20.0889 40.1767C20.0889 40.1767 20.0889 40.1767 20.0889 40.1767C20.0889 40.1767 20.0889 40.1767 20.0889 40.1767C20.0889 40.1767 20.0889 40.1767 20.0889 40.1767C20.0889 40.1767 20.0889 40.1767 20.0889 40.1767C20.0889 40.1767 20.0889 40.1767 20.0889 40.1767C20.0889 40.1767 20.0889 40.1767 20.0889 40.1767C20.0889 40.1767 20.0889 40.1767 20.0889 40.1767C20.0889 40.1767 20.0889 40.1767 20.0889 40.1767C20.0889 40.1767 20.0889 40.1767 20.0889 40.1767C20.0889 40.1767 20.0889 40.1767 20.0889 40.1767C20.0889 40.1767 20.0889 40.1767 20.0889 40.1767C20.0889 40.1767 20.0889 40.1767 20.0889 40.1767C20.0889 40.1767 20.0889 40.1767 20.0889 40.1767C20.0889 40.1767 20.0889 40.1767 20.0889 40.1767C20.0889 40.1767 20.0889 40.1767 20.0889 40.1767C20.0889 40.1767 20.0889 40.1767 20.0889 40.1767C20.0889 40.1767 20.0889 40.1767 20.0889 40.1767C20.0889 40.1767 20.0889 40.1767 20.0889 40.1767C20.0889 40.1767 20.0889 40.1767 20.0889 40.1767C20.0889 40.1767 20.0889 40.1767 20.0889 40.1767C20.0889 40.1767 20.0889 40.1767 20.0889 40.1767C20.0889 40.1767 20.0889 40.1767 20.0889 40.1767C20.0889 40.1767 20.0889 40.1767 20.0889 40.1767C20.0889 40.1767 20.0889 40.1767 20.0889 40.1767C20.0889 40.1767 20.0889 40.1767 20.0889 40.1767C20.0889 40.1767 20.0889 40.1767 20.0889 40.1767C20.0889 40.1767 20.0889 40.1767 20.0889 40.1767C20.0889 40.1767 20.0889 40.1767 20.0889 40.1767C20.0889 40.1767 20.0889 40.1767 20.0889 40.1767C20.0889 40.1767 20.0889 40.1767 20.0889 40.1767C20.0889 40.1767 20.0889 40.1767 20.0889 40.1767C20.0889 40.1767 20.0889 40.1767 20.0889 40.1767C20.0889 40.1767 20.0889 40.1767 20.0889 40.1767C20.0889 40.1767 20.0889 40.1767 20.0889 40.1767C20.0889 40.1767 20.0889 40.1767 20.0889 40.1767C20.0889 40.1767 20.0889 40.1767 20.0889 40.1767C20.0889 40.1767 20.0889 40.1767 20.0889 40.1767C20.0889 40.1767 20.0889 40.1767 20.0889 40.1767C20.0889 40.1767 20.0889 40.1767 20.0889 40.1767C20.0889 40.1767 20.0889 40.1767 20.0889 40.1767C20.0889 40.1767 20.0889 40.1767 20.0889 40.1767C20.0889 40.1767 20.0889 40.1767 20.0889 40.1767C20.0889 40.1767 20.0889 40.1767 20.0889 40.1767C20.0889 40.1767 20.0889 40.1767 20.0889 40.1767C20.0889 40.1767 20.0889 40.1767 20.0889 40.1767C20.0889 40.1767 20.0889 40.1767 20.0889 40.1767C20.0889 40.1767 20.0889 40.1767 20.0889 40.1767C20.0889 40.1767 20.0889 40.1767 20.0889 40.1767C20.0889 40.1767 20.0889 40.1767 20.0889 40.1767C20.0889 40.1767 20.0889 40.1767 20.0889 40.1767C20.0889 40.1767 20.0889 40.1767 20.0889 40.1767C20.0889 40.1767 20.0889 40.1767 20.0889 40.1767C20.0889 40.1767 20.0889 40.1767 20.0889 40.1767C20.0889 40.1767 20.0889 40.1767 20.0889 40.1767C20.0889 40.1767 20.0889 40.1767 20.0889 40.1767C20.0889 40.1767 20.0889 40.1767 20.0889 40.1767C20.0889 40.1767 20.0889 40.1767 20.0889 40.1767C20.0889 40.1767 20.0889 40.1767 20.0889 40.1767C20.0889 40.1767 20.0889 40.1767 20.0889 40.1767C20.0889 40.1767 20.0889 40.1767 20.0889 40.1767C20.0889 40.1767 20.0889 40.1767 20.0889 40.1767C20.0889 40.1767 20.0889 40.1767 20.0889 40.1767C20.0889 40.1767 20.0889 40.1767 20.0889 40.1767C20.0889 40.1767 20.0889 40.1767 20.0889 40.1767C20.0889 40.1767 20.0889 40.1767 20.0889 40.1767C20.0889 40.1767 20.0889 40.1767 20.0889 40.1767C20.0889 40.1767 20.0889 40.1767 20.0889 40.1767C20.0889 40.1767 20.0889 40.1767 20.0889 40.1767C20.0889 40.1767 20.0889 40.1767 20.0889 40.1767C20.0889 40.1767 20.0889 40.1767 20.0889 40.1767C20.0889 40.1767 20.0889 40.1767 20.0889 40.1767C20.0889 40.1767 20.0889 40.1767 20.0889 40.1767C20.0889 40.1767 20.0889 40.1767 20.0889 40.1767C20.0889 40.1767 20.0889 40.1767 20.0889 40.1767C20.0889 40.1767 20.0889 40.1767 20.0889 40.1767C20.0889 40.1767 20.0889 40.1767 20.0889 40.1767C20.0889 40.1767 20.0889 40.1767 20.0889 40.1767C20.0889 40.1767 20.0889 40.1767 20.0889 40.1767C20.0889 40.1767 20.0889 40.1767 20.0889 40.1767C20.0889 40.1767 20.0889 40.1767 20.0889 40.1767C20.0889 40.1767 20.0889 40.1767 20.0889 40.1767C20.0889 40.1767 20.0889 40.1767 20.0889 40.1767C20.0889 40.1767 20.0889 40.1767 20.0889 40.1767C20.0889 40.1767 20.0889 40.1767 20.0889 40.1767C20.0889 40.1767 20.0889 40.1767 20.0889 40.1767C20.0889 40.1767 20.0889 40.1767 20.0889 40.1767C20.0889 40.1767 20.0889 40.1767 20.0889 40.1767C20.0889 40.1767 20.0889 40.1767 20.0889 40.1767C20.0889 40.1767 20.0889 40.1767 20.0889 40.1767C20.0889 40.1767 20.0889 40.1767 20.0889 40.1767C20.0889 40.1767 20.0889 40.1767 20.0889 40.1767C20.0889 40.1767 20.0889 40.1767 20.0889 40.1767C20.0889 40.1767 20.0889 40.1767 20.0889 40.1767C20.0889 40.1767 20.0889 40.1767 20.0889 40.1767C20.0889 40.1767 20.0889 40.1767 20.0889 40.1767C20.0889 40.1767 20.0889 40.1767 20.0889 40.1767C20.0889 40.1767 20.0889 40.1767 20.0889 40.1767C20.0889 40.1767 20.0889 40.1767 20.0889 40.1767C20.0889 40.1767 20.0889 40.1767 20.0889 40.1767C20.0889 40.1767 20.0889 40.1767 20.0889 40.1767C20.0889 40.1767 20.0889 40.1767 20.0889 40.1767C20.0889 40.1767 20.0889 40.1767 20.0889 40.1767C20.0889 40.1767 20.0889 40.1767 20.0889 40.1767C20.0889 40.1767 20.0889 40.1767 20.0889 40.1767C20.0889 40.1767 20.0889 40.1767 20.0889 40.1767C20.0889 40.1767 20.0889 40.1767 20.0889 40.1767C20.0889 40.1767 20.0889 40.1767 20.0889 40.1767C20.0889 40.1767 20.0889 40.1767 20.0889 40.1767C20.0889 40.1767 20.0889 40.1767 20.0889 40.1767C20.0889 40.1767 20.0889 40.1767 20.0889 40.1767C20.0889 40.1767 20.0889 40.1767 20.0889 40.1767C20.0889 40.1767 20.0889 40.1767 20.0889 40.1767C20.0889 40.1767 20.0889 40.1767 20.0889 40.1767C20.0889 40.1767 20.0889 40.1767 20.0889 40.1767C20.0889 40.1767 20.0889 40.1767 20.0889 40.1767C20.0889 40.1767 20.0889 40.1767 20.0889 40.1767C20.0889 40.1767 20.0889 40.1767 20.0889 40.1767C20.0889 40.1767 20.0889 40.1767 20.0889 40.1767C20.0889 40.1767 20.0889 40.1767 20.0889 40.1767C20.0889 40.1767 20.0889 40.1767 20.0889 40.1767C20.0889 40.1767 20.0889 40.1767 20.0889 40.1767C20.0889 40.1767 20.0889 40.1767 20.0889 40.1767C20.0889 40.1767 20.0889 40.1767 20.0889 40.1767C20.0889 40.1767 20.0889 40.1767 20.0889 40.1767C20.0889 40.1767 20.0889 40.1767 20.0889 40.1767C20.0889 40.1767 20.0889 40.1767 20.0889 40.1767C20.0889 40.1767 20.0889 40.1767 20.0889 40.1767C20.0889 40.1767 20.0889 40.1767 20.0889 40.1767C20.0889 40.1767 20.0889 40.1767 20.0889 40.1767C20.0889 40.1767 20.0889 40.1767 20.0889 40.1767C20.0889 40.1767 20.0889 40.1767 20.0889 40.1767C20.0889 40.1767 20.0889 40.1767 20.0889 40.1767C20.0889 40.1767 20.0889 40.1767 20.0889 40.1767C20.0889 40.1767 20.0889 40.1767 20.0889 40.1767C20.0889 40.1767 20.0889 40.1767 20.0889 40.1767C20.0889 40.1767 20.0889 40.1767 20.0889 40.1767C20.0889 40.1767 20.0889 40.1767 20.0889 40.1767C20.0889 40.1767 20.0889 40.1767 20.0889 40.1767C20.0889 40.1767 20.0889 40.1767 20.0889 40.1767C20.0889 40.1767 20.0889 40.1767 20.0889 40.1767C20.0889 40.1767 20.0889 40.1767 20.0889 40.1767C20.0889 40.1767 20.0889 40.1767 20.0889 40.1767C20.0889 40.1767 20.0889 40.1767 20.0889 40.1767C20.0889 40.1767 20.0889 40.1767 20.0889 40.1767C20.0889 40.1767 20.0889 40.1767 20.0889 40.1767C20.0889 40.1767 20.0889 40.1767 20.0889 40.1767C20.0889 40.1767 20.0889 40.1767 20.0889 40.1767C20.0889 40.1767 20.0889 40.1767 20.0889 40.1767C20.0889 40.1767 20.0889 40.1767 20.0889 40.1767C20.0889 40.1767 20.0889 40.1767 20.0889 40.1767C20.0889 40.1767 20.0889 40.1767 20.0889 40.1767C20.0889 40.1767 20.0889 40.1767 20.0889 40.1767C20.0889 40.1767 20.0889 40.1767 20.0889 40.1767C20.0889 40.1767 20.0889 40.1767 20.0889 40.1767C20.0889 40.1767 20.0889 40.1767 20.0889 40.1767C20.0889 40.1767 20.0889 40.1767 20.0889 40.1767C20.0889 40.1767 20.0889 40.1767 20.0889 40.1767C20.0889 40.1767 20.0889 40.1767 20.0889 40.1767C20.0889 40.1767 20.0889 40.1767 20.0889 40.1767C20.0889 40.1767 20.0889 40.1767 20.0889 40.1767C20.0889 40.1767 20.0889 40.1767 20.0889 40.1767C20.0889 40.1767 20.0889 40.1767 20.0889 40.1767C20.0889 40.1767 20.0889 40.1767 20.0889 40.1767C20.0889 40.1767 20.0889 40.1767 20.0889 40.1767C20.0889 40.1767 20.0889 40.1767 20.0889 40.1767C20.0889 40.1767 20.0889 40.1767 20.0889 40.1767C20.0889 40.1767 20.0889 40.1767 20.0889 40.1767C20.0889 40.1767 20.0889 40.1767 20.0889 40.1767C20.0889 40.1767 20.0889 40.1767 20.0889 40.1767C20.0889 40.1767 20.0889 40.1767 20.0889 40.1767C20.0889 40.1767 20.0889 40.1767 20.0889 40.1767C20.0889 40.1767 20.0889 40.1767 20.0889 40.1767C20.0889 40.1767 20.0889 40.1767 20.0889 40.1767V37.2006C20.0889 37.2006 20.0889 37.2006 20.0889 37.2006C20.0889 37.2006 20.0889 37.2006 20.0889 37.2006C20.0889 37.2006 20.0889 37.2006 20.0889 37.2006C20.0889 37.2006 20.0889 37.2006 20.0889 37.2006C20.0889 37.2006 20.0889 37.2006 20.0889 37.2006C20.0889 37.2006 20.0889 37.2006 20.0889 37.2006C20.0889 37.2006 20.0889 37.2006 20.0889 37.2006C20.0889 37.2006 20.0889 37.2006 20.0889 37.2006C20.0889 37.2006 20.0889 37.2006 20.0889 37.2006C20.0889 37.2006 20.0889 37.2006 20.0889 37.2006C20.0889 37.2006 20.0889 37.2006 20.0889 37.2006C20.0889 37.2006 20.0889 37.2006 20.0889 37.2006C20.0889 37.2006 20.0889 37.2006 20.0889 37.2006C20.0889 37.2006 20.0889 37.2006 20.0889 37.2006C20.0889 37.2006 20.0889 37.2006 20.0889 37.2006C20.0889 37.2006 20.0889 37.2006 20.0889 37.2006C20.0889 37.2006 20.0889 37.2006 20.0889 37.2006C20.0889 37.2006 20.0889 37.2006 20.0889 37.2006C20.0889 37.2006 20.0889 37.2006 20.0889 37.2006C20.0889 37.2006 20.0889 37.2006 20.0889 37.2006C20.0889 37.2006 20.0889 37.2006 20.0889 37.2006C20.0889 37.2006 20.0889 37.2006 20.0889 37.2006C20.0889 37.2006 20.0889 37.2006 20.0889 37.2006C20.0889 37.2006 20.0889 37.2006 20.0889 37.2006C20.0889 37.2006 20.0889 37.2006 20.0889 37.2006C20.0889 37.2006 20.0889 37.2006 20.0889 37.2006C20.0889 37.2006 20.0889 37.2006 20.0889 37.2006C20.0889 37.2006 20.0889 37.2006 20.0889 37.2006C20.0889 37.2006 20.0889 37.2006 20.0889 37.2006C20.0889 37.2006 20.0889 37.2006 20.0889 37.2006C20.0889 37.2006 20.0889 37.2006 20.0889 37.2006C20.0889 37.2006 20.0889 37.2006 20.0889 37.2006C20.0889 37.2006 20.0889 37.2006 20.0889 37.2006C20.0889 37.2006 20.0889 37.2006 20.0889 37.2006C20.0889 37.2006 20.0889 37.2006 20.0889 37.2006C20.0889 37.2006 20.0889 37.2006 20.0889 37.2006C20.0889 37.2006 20.0889 37.2006 20.0889 37.2006C20.0889 37.2006 20.0889 37.2006 20.0889 37.2006C20.0889 37.2006 20.0889 37.2006 20.0889 37.2006C20.0889 37.2006 20.0889 37.2006 20.0889 37.2006C20.0889 37.2006 20.0889 37.2006 20.0889 37.2006C20.0889 37.2006 20.0889 37.2006 20.0889 37.2006C20.0889 37.2006 20.0889 37.2006 20.0889 37.2006C20.0889 37.2006 20.0889 37.2006 20.0889 37.2006C20.0889 37.2006 20.0889 37.2006 20.0889 37.2006C20.0889 37.2006 20.0889 37.2006 20.0889 37.2006C20.0889 37.2006 20.0889 37.2006 20.0889 37.2006C20.0889 37.2006 20.0889 37.2006 20.0889 37.2006C20.0889 37.2006 20.0889 37.2006 20.0889 37.2006C20.0889 37.2006 20.0889 37.2006 20.0889 37.2006C20.0889 37.2006 20.0889 37.2006 20.0889 37.2006C20.0889 37.2006 20.0889 37.2006 20.0889 37.2006C20.0889 37.2006 20.0889 37.2006 20.0889 37.2006C20.0889 37.2006 20.0889 37.2006 20.0889 37.2006C20.0889 37.2006 20.0889 37.2006 20.0889 37.2006C20.0889 37.2006 20.0889 37.2006 20.0889 37.2006C20.0889 37.2006 20.0889 37.2006 20.0889 37.2006C20.0889 37.2006 20.0889 37.2006 20.0889 37.2006C20.0889 37.2006 20.0889 37.2006 20.0889 37.2006C20.0889 37.2006 20.0889 37.2006 20.0889 37.2006C20.0889 37.2006 20.0889 37.2006 20.0889 37.2006C20.0889 37.2006 20.0889 37.2006 20.0889 37.2006C20.0889 37.2006 20.0889 37.2006 20.0889 37.2006C20.0889 37.2006 20.0889 37.2006 20.0889 37.2006C20.0889 37.2006 20.0889 37.2006 20.0889 37.2006C20.0889 37.2006 20.0889 37.2006 20.0889 37.2006C20.0889 37.2006 20.0889 37.2006 20.0889 37.2006C20.0889 37.2006 20.0889 37.2006 20.0889 37.2006C20.0889 37.2006 20.0889 37.2006 20.0889 37.2006C20.0889 37.2006 20.0889 37.2006 20.0889 37.2006C20.0889 37.2006 20.0889 37.2006 20.0889 37.2006C20.0889 37.2006 20.0889 37.2006 20.0889 37.2006C20.0889 37.2006 20.0889 37.2006 20.0889 37.2006C20.0889 37.2006 20.0889 37.2006 20.0889 37.2006C20.0889 37.2006 20.0889 37.2006 20.0889 37.2006C20.0889 37.2006 20.0889 37.2006 20.0889 37.2006C20.0889 37.2006 20.0889 37.2006 20.0889 37.2006C20.0889 37.2006 20.0889 37.2006 20.0889 37.2006C20.0889 37.2006 20.0889 37.2006 20.0889 37.2006C20.0889 37.2006 20.0889 37.2006 20.0889 37.2006C20.0889 37.2006 20.0889 37.2006 20.0889 37.2006C20.0889 37.2006 20.0889 37.2006 20.0889 37.2006C20.0889 37.2006 20.0889 37.2006 20.0889 37.2006C20.0889 37.2006 20.0889 37.2006 20.0889 37.2006C20.0889 37.2006 20.0889 37.2006 20.0889 37.2006C20.0889 37.2006 20.0889 37.2006 20.0889 37.2006C20.0889 37.2006 20.0889 37.2006 20.0889 37.2006C20.0889 37.2006 20.0889 37.2006 20.0889 37.2006C20.0889 37.2006 20.0889 37.2006 20.0889 37.2006C20.0889 37.2006 20.0889 37.2006 20.0889 37.2006C20.0889 37.2006 20.0889 37.2006 20.0889 37.2006C20.0889 37.2006 20.0889 37.2006 20.0889 37.2006C20.0889 37.2006 20.0889 37.2006 20.0889 37.2006C20.0889 37.2006 20.0889 37.2006 20.0889 37.2006C20.0889 37.2006 20.0889 37.2006 20.0889 37.2006C20.0889 37.2006 20.0889 37.2006 20.0889 37.2006C20.0889 37.2006 20.0889 37.2006 20.0889 37.2006C20.0889 37.2006 20.0889 37.2006 20.0889 37.2006C20.0889 37.2006 20.0889 37.2006 20.0889 37.2006C20.0889 37.2006 20.0889 37.2006 20.0889 37.2006C20.0889 37.2006 20.0889 37.2006 20.0889 37.2006C20.0889 37.2006 20.0889 37.2006 20.0889 37.2006C20.0889 37.2006 20.0889 37.2006 20.0889 37.2006C20.0889 37.2006 20.0889 37.2006 20.0889 37.2006C20.0889 37.2006 20.0889 37.2006 20.0889 37.2006C20.0889 37.2006 20.0889 37.2006 20.0889 37.2006C20.0889 37.2006 20.0889 37.2006 20.0889 37.2006C20.0889 37.2006 20.0889 37.2006 20.0889 37.2006C20.0889 37.2006 20.0889 37.2006 20.0889 37.2006C20.0889 37.2006 20.0889 37.2006 20.0889 37.2006C20.0889 37.2006 20.0889 37.2006 20.0889 37.2006C20.0889 37.2006 20.0889 37.2006 20.0889 37.2006C20.0889 37.2006 20.0889 37.2006 20.0889 37.2006C20.0889 37.2006 20.0889 37.2006 20.0889 37.2006C20.0889 37.2006 20.0889 37.2006 20.0889 37.2006C20.0889 37.2006 20.0889 37.2006 20.0889 37.2006C20.0889 37.2006 20.0889 37.2006 20.0889 37.2006C20.0889 37.2006 20.0889 37.2006 20.0889 37.2006C20.0889 37.2006 20.0889 37.2006 20.0889 37.2006C20.0889 37.2006 20.0889 37.2006 20.0889 37.2006C20.0889 37.2006 20.0889 37.2006 20.0889 37.2006C20.0889 37.2006 20.0889 37.2006 20.0889 37.2006C20.0889 37.2006 20.0889 37.2006 20.0889 37.2006C20.0889 37.2006 20.0889 37.2006 20.0889 37.2006C20.0889 37.2006 20.0889 37.2006 20.0889 37.2006C20.0889 37.2006 20.0889 37.2006 20.0889 37.2006C20.0889 37.2006 20.0889 37.2006 20.0889 37.2006C20.0889 37.2006 20.0889 37.2006 20.0889 37.2006C20.0889 37.2006 20.0889 37.2006 20.0889 37.2006C20.0889 37.2006 20.0889 37.2006 20.0889 37.2006C20.0889 37.2006 20.0889 37.2006 20.0889 37.2006C20.0889 37.2006 20.0889 37.2006 20.0889 37.2006C20.0889 37.2006 20.0889 37.2006 20.0889 37.2006C20.0889 37.2006 20.0889 37.2006 20.0889 37.2006C20.0889 37.2006 20.0889 37.2006 20.0889 37.2006C20.0889 37.2006 20.0889 37.2006 20.0889 37.2006C20.0889 37.2006 20.0889 37.2006 20.0889 37.2006C20.0889 37.2006 20.0889 37.2006 20.0889 37.2006C20.0889 37.2006 20.0889 37.2006 20.0889 37.2006C20.0889 37.2006 20.0889 37.2006 20.0889 37.2006C20.0889 37.2006 20.0889 37.2006 20.0889 37.2006C20.0889 37.2006 20.0889 37.2006 20.0889 37.2006C20.0889 37.2006 20.0889 37.2006 20.0889 37.2006C20.0889 37.2006 20.0889 37.2006 20.0889 37.2006C20.0889 37.2006 20.0889 37.2006 20.0889 37.2006C20.0889 37.2006 20.0889 37.2006 20.0889 37.2006C20.0889 37.2006 20.0889 37.2006 20.0889 37.2006C20.0889 37.2006 20.0889 37.2006 20.0889 37.2006C20.0889 37.2006 20.0889 37.2006 20.0889 37.2006C20.0889 37.2006 20.0889 37.2006 20.0889 37.2006C20.0889 37.2006 20.0889 37.2006 20.0889 37.2006C20.0889 37.2006 20.0889 37.2006 20.0889 37.2006C20.0889 37.2006 20.0889 37.2006 20.0889 37.2006C20.0889 37.2006 20.0889 37.2006 20.0889 37.2006C20.0889 37.2006 20.0889 37.2006 20.0889 37.2006C20.0889 37.2006 20.0889 37.2006 20.0889 37.2006C20.0889 37.2006 20.0889 37.2006 20.0889 37.2006C20.0889 37.2006 20.0889 37.2006 20.0889 37.2006C20.0889 37.2006 20.0889 37.2006 20.0889 37.2006C20.0889 37.2006 20.0889 37.2006 20.0889 37.2006C20.0889 37.2006 20.0889 37.2006 20.0889 37.2006C20.0889 37.2006 20.0889 37.2006 20.0889 37.2006C20.0889 37.2006 20.0889 37.2006 20.0889 37.2006C20.0889 37.2006 20.0889 37.2006 20.0889 37.2006C20.0889 37.2006 20.0889 37.2006 20.0889 37.2006C20.0889 37.2006 20.0889 37.2006 20.0889 37.2006C20.0889 37.2006 20.0889 37.2006 20.0889 37.2006C20.0889 37.2006 20.0889 37.2006 20.0889 37.2006C20.0889 37.2006 20.0889 37.2006 20.0889 37.2006C20.0889 37.2006 20.0889 37.2006 20.0889 37.2006C20.0889 37.2006 20.0889 37.2006 20.0889 37.2006C20.0889 37.2006 20.0889 37.2006 20.0889 37.2006C20.0889 37.2006 20.0889 37.2006 20.0889 37.2006C20.0889 37.2006 20.0889 37.2006 20.0889 37.2006C20.0889 37.2006 20.0889 37.2006 20.0889 37.2006C20.0889 37.2006 20.0889 37.2006 20.0889 37.2006C20.0889 37.2006 20.0889 37.2006 20.0889 37.2006C20.0889 37.2006 20.0889 37.2006 20.0889 37.2006C20.0889 37.2006 20.0889 37.2006 20.0889 37.2006C20.0889 37.2006 20.0889 37.2006 20.0889 37.2006C20.0889 37.2006 20.0889 37.2006 20.0889 37.2006C20.0889 37.2006 20.0889 37.2006 20.0889 37.2006C20.0889 37.2006 20.0889 37.2006 20.0889 37.2006C20.0889 37.2006 20.0889 37.2006 20.0889 37.2006C20.0889 37.2006 20.0889 37.2006 20.0889 37.2006C20.0889 37.2006 20.0889 37.2006 20.0889 37.2006C20.0889 37.2006 20.0889 37.2006 20.0889 37.2006C20.0889 37.2006 20.0889 37.2006 20.0889 37.2006C20.0889 37.2006 20.0889 37.2006 20.0889 37.2006C20.0889 37.2006 20.0889 37.2006 20.0889 37.2006C20.0889 37.2006 20.0889 37.2006 20.0889 37.2006C20.0889 37.2006 20.0889 37.2006 20.0889 37.2006C20.0889 37.2006 20.0889 37.2006 20.0889 37.2006C20.0889 37.2006 20.0889 37.2006 20.0889 37.2006C20.0889 37.2006 20.0889 37.2006 20.0889 37.2006C20.0889 37.2006 20.0889 37.2006 20.0889 37.2006C20.0889 37.2006 20.0889 37.2006 20.0889 37.2006C20.0889 37.2006 20.0889 37.2006 20.0889 37.2006C20.0889 37.2006 20.0889 37.2006 20.0889 37.2006C20.0889 37.2006 20.0889 37.2006 20.0889 37.2006C20.0889 37.2006 20.0889 37.2006 20.0889 37.2006C20.0889 37.2006 20.0889 37.2006 20.0889 37.2006C20.0889 37.2006 20.0889 37.2006 20.0889 37.2006C20.0889 37.2006 20.0889 37.2006 20.0889 37.2006C20.0889 37.2006 20.0889 37.2006 20.0889 37.2006C20.0889 37.2006 20.0889 37.2006 20.0889 37.2006C20.0889 37.2006 20.0889 37.2006 20.0889 37.2006C20.0889 37.2006 20.0889 37.2006 20.0889 37.2006C20.0889 37.2006 20.0889 37.2006 20.0889 37.2006C20.0889 37.2006 20.0889 37.2006 20.0889 37.2006C20.0889 37.2006 20.0889 37.2006 20.0889 37.2006C20.0889 37.2006 20.0889 37.2006 20.0889 37.2006C20.0889 37.2006 20.0889 37.2006 20.0889 37.2006C20.0889 37.2006 20.0889 37.2006 20.0889 37.2006C20.0889 37.2006 20.0889 37.2006 20.0889 37.2006C20.0889 37.2006 20.0889 37.2006 20.0889 37.2006C20.0889 37.2006 20.0889 37.2006 20.0889 37.2006C20.0889 37.2006 20.0889 37.2006 20.0889 37.2006C20.0889 37.2006 20.0889 37.2006 20.0889 37.2006C20.0889 37.2006 20.0889 37.2006 20.0889 37.2006C20.0889 37.2006 20.0889 37.2006 20.0889 37.2006C20.0889 37.2006 20.0889 37.2006 20.0889 37.2006C20.0889 37.2006 20.0889 37.2006 20.0889 37.2006C20.0889 37.2006 20.0889 37.2006 20.0889 37.2006C20.0889 37.2006 20.0889 37.2006 20.0889 37.2006C20.0889 37.2006 20.0889 37.2006 20.0889 37.2006C20.0889 37.2006 20.0889 37.2006 20.0889 37.2006C20.0889 37.2006 20.0889 37.2006 20.0889 37.2006C20.0889 37.2006 20.0889 37.2006 20.0889 37.2006C20.0889 37.2006 20.0889 37.2006 20.0889 37.2006C20.0889 37.2006 20.0889 37.2006 20.0889 37.2006C20.0889 37.2006 20.0889 37.2006 20.0889 37.2006C20.0889 37.2006 20.0889 37.2006 20.0889 37.2006C20.0889 37.2006 20.0889 37.2006 20.0889 37.2006C20.0889 37.2006 20.0889 37.2006 20.0889 37.2006C20.0889 37.2006 20.0889 37.2006 20.0889 37.2006C20.0889 37.2006 20.0889 37.2006 20.0889 37.2006C20.0889 37.2006 20.0889 37.2006 20.0889 37.2006C20.0889 37.2006 20.0889 37.2006 20.0889 37.2006C20.0889 37.2006 20.0889 37.2006 20.0889 37.2006C20.0889 37.2006 20.0889 37.2006 20.0889 37.2006C20.0889 37.2006 20.0889 37.2006 20.0889 37.2006C20.0889 37.2006 20.0889 37.2006 20.0889 37.2006C20.0889 37.2006 20.0889 37.2006 20.0889 37.2006C20.0889 37.2006 20.0889 37.2006 20.0889 37.2006C20.0889 37.2006 20.0889 37.2006 20.0889 37.2006C20.0889 37.2006 20.0889 37.2006 20.0889 37.2006C20.0889 37.2006 20.0889 37.2006 20.0889 37.2006C20.0889 37.2006 20.0889 37.2006 20.0889 37.2006C20.0889 37.2006 20.0889 37.2006 20.0889 37.2006C20.0889 37.2006 20.0889 37.2006 20.0889 37.2006C20.0889 37.2006 20.0889 37.2006 20.0889 37.2006C20.0889 37.2006 20.0889 37.2006 20.0889 37.2006C20.0889 37.2006 20.0889 37.2006 20.0889 37.2006C20.0889 37.2006 20.0889 37.2006 20.0889 37.2006C20.0889 37.2006 20.0889 37.2006 20.0889 37.2006C20.0889 37.2006 20.0889 37.2006 20.0889 37.2006C20.0889 37.2006 20.0889 37.2006 20.0889 37.2006C20.0889 37.2006 20.0889 37.2006 20.0889 37.2006C20.0889 37.2006 20.0889 37.2006 20.0889 37.2006C20.0889 37.2006 20.0889 37.2006 20.0889 37.2006C20.0889 37.2006 20.0889 37.2006 20.0889 37.2006C20.0889 37.2006 20.0889 37.2006 20.0889 37.2006C20.0889 37.2006 20.0889 37.2006 20.0889 37.2006C20.0889 37.2006 20.0889 37.2006 20.0889 37.2006C20.0889 37.2006 20.0889 37.2006 20.0889 37.2006C20.0889 37.2006 20.0889 37.2006 20.0889 37.2006C20.0889 37.2006 20.0889 37.2006 20.0889 37.2006C20.0889 37.2006 20.0889 37.2006 20.0889 37.2006C20.0889 37.2006 20.0889 37.2006 20.0889 37.2006C20.0889 37.2006 20.0889 37.2006 20.0889 37.2006C20.0889 37.2006 20.0889 37.2006 20.0889 37.2006C20.0889 37.2006 20.0889 37.2006 20.0889 37.2006C20.0889 37.2006 20.0889 37.2006 20.0889 37.2006C20.0889 37.2006 20.0889 37.2006 20.0889 37.2006C20.0889 37.2006 20.0889 37.2006 20.0889 37.2006C20.0889 37.2006 20.0889 37.2006 20.0889 37.2006C20.0889 37.2006 20.0889 37.2006 20.0889 37.2006C20.0889 37.2006 20.0889 37.2006 20.0889 37.2006C20.0889 37.2006 20.0889 37.2006 20.0889 37.2006C20.0889 37.2006 20.0889 37.2006 20.0889 37.2006C20.0889 37.2006 20.0889 37.2006 20.0889 37.2006C20.0889 37.2006 20.0889 37.2006 20.0889 37.2006C20.0889 37.2006 20.0889 37.2006 20.0889 37.2006C20.0889 37.2006 20.0889 37.2006 20.0889 37.2006C20.0889 37.2006 20.0889 37.2006 20.0889 37.2006C20.0889 37.2006 20.0889 37.2006 20.0889 37.2006C20.0889 37.2006 20.0889 37.2006 20.0889 37.2006C20.0889 37.2006 20.0889 37.2006 20.0889 37.2006C20.0889 37.2006 20.0889 37.2006 20.0889 37.2006C20.0889 37.2006 20.0889 37.2006 20.0889 37.2006C20.0889 37.2006 20.0888 37.2006 20.0888 37.2006C20.0888 37.2006 20.0888 37.2006 20.0888 37.2006C20.0888 37.2006 20.0888 37.2006 20.0888 37.2006C20.0888 37.2006 20.0888 37.2006 20.0888 37.2006C20.0888 37.2006 20.0888 37.2006 20.0888 37.2006C20.0888 37.2006 20.0888 37.2006 20.0888 37.2006C20.0888 37.2006 20.0888 37.2006 20.0888 37.2006C20.0888 37.2006 20.0888 37.2006 20.0888 37.2006C20.0888 37.2006 20.0888 37.2006 20.0888 37.2006C20.0888 37.2006 20.0888 37.2006 20.0888 37.2006C20.0888 37.2006 20.0888 37.2006 20.0888 37.2006C20.0888 37.2006 20.0888 37.2006 20.0888 37.2006C20.0888 37.2006 20.0888 37.2006 20.0888 37.2006C20.0888 37.2006 20.0888 37.2006 20.0888 37.2006C20.0888 37.2006 20.0888 37.2006 20.0888 37.2006C20.0888 37.2006 20.0888 37.2006 20.0888 37.2006C20.0888 37.2006 20.0888 37.2006 20.0888 37.2006C20.0888 37.2006 20.0888 37.2006 20.0888 37.2006C20.0888 37.2006 20.0888 37.2006 20.0888 37.2006C20.0888 37.2006 20.0888 37.2006 20.0888 37.2006C20.0888 37.2006 20.0888 37.2006 20.0888 37.2006C20.0888 37.2006 20.0888 37.2006 20.0888 37.2006C20.0888 37.2006 20.0888 37.2006 20.0888 37.2006C20.0888 37.2006 20.0888 37.2006 20.0888 37.2006C20.0888 37.2006 20.0888 37.2006 20.0888 37.2006C20.0888 37.2006 20.0888 37.2006 20.0888 37.2006C20.0888 37.2006 20.0888 37.2006 20.0888 37.2006C20.0888 37.2006 20.0888 37.2006 20.0888 37.2006C20.0888 37.2006 20.0888 37.2006 20.0888 37.2006C20.0888 37.2006 20.0888 37.2006 20.0888 37.2006C20.0888 37.2006 20.0888 37.2006 20.0888 37.2006C20.0888 37.2006 20.0888 37.2006 20.0888 37.2006C20.0888 37.2006 20.0888 37.2006 20.0888 37.2006C20.0888 37.2006 20.0888 37.2006 20.0888 37.2006C20.0888 37.2006 20.0888 37.2006 20.0888 37.2006C20.0888 37.2006 20.0888 37.2006 20.0888 37.2006C20.0888 37.2006 20.0888 37.2006 20.0888 37.2006C20.0888 37.2006 20.0888 37.2006 20.0888 37.2006C20.0888 37.2006 20.0888 37.2006 20.0888 37.2006C20.0888 37.2006 20.0888 37.2006 20.0888 37.2006C20.0888 37.2006 20.0888 37.2006 20.0888 37.2006C20.0888 37.2006 20.0888 37.2006 20.0888 37.2006C20.0888 37.2006 20.0888 37.2006 20.0888 37.2006C20.0888 37.2006 20.0888 37.2006 20.0888 37.2006C20.0888 37.2006 20.0888 37.2006 20.0888 37.2006C20.0888 37.2006 20.0888 37.2006 20.0888 37.2006C20.0888 37.2006 20.0888 37.2006 20.0888 37.2006C20.0888 37.2006 20.0888 37.2006 20.0888 37.2006C20.0888 37.2006 20.0888 37.2006 20.0888 37.2006C20.0888 37.2006 20.0888 37.2006 20.0888 37.2006C20.0888 37.2006 20.0888 37.2006 20.0888 37.2006C20.0888 37.2006 20.0888 37.2006 20.0888 37.2006C20.0888 37.2006 20.0888 37.2006 20.0888 37.2006C20.0888 37.2006 20.0888 37.2006 20.0888 37.2006C20.0888 37.2006 20.0888 37.2006 20.0888 37.2006C20.0888 37.2006 20.0888 37.2006 20.0888 37.2006C20.0888 37.2006 20.0888 37.2006 20.0888 37.2006C20.0888 37.2006 20.0888 37.2006 20.0888 37.2006C20.0888 37.2006 20.0888 37.2006 20.0888 37.2006C20.0888 37.2006 20.0888 37.2006 20.0888 37.2006C20.0888 37.2006 20.0888 37.2006 20.0888 37.2006C20.0888 37.2006 20.0888 37.2006 20.0888 37.2006C20.0888 37.2006 20.0888 37.2006 20.0888 37.2006C20.0888 37.2006 20.0888 37.2006 20.0888 37.2006C20.0888 37.2006 20.0888 37.2006 20.0888 37.2006C20.0888 37.2006 20.0888 37.2006 20.0888 37.2006C20.0888 37.2006 20.0888 37.2006 20.0888 37.2006C20.0888 37.2006 20.0888 37.2006 20.0888 37.2006C20.0888 37.2006 20.0888 37.2006 20.0888 37.2006C20.0888 37.2006 20.0888 37.2006 20.0888 37.2006C20.0888 37.2006 20.0888 37.2006 20.0888 37.2006C20.0888 37.2006 20.0888 37.2006 20.0888 37.2006C20.0888 37.2006 20.0888 37.2006 20.0888 37.2006C20.0888 37.2006 20.0888 37.2006 20.0888 37.2006C20.0888 37.2006 20.0888 37.2006 20.0888 37.2006C20.0888 37.2006 20.0888 37.2006 20.0888 37.2006C20.0888 37.2006 20.0888 37.2006 20.0888 37.2006C20.0888 37.2006 20.0888 37.2006 20.0888 37.2006C20.0888 37.2006 20.0888 37.2006 20.0888 37.2006C20.0888 37.2006 20.0888 37.2006 20.0888 37.2006C20.0888 37.2006 20.0888 37.2006 20.0888 37.2006C20.0888 37.2006 20.0888 37.2006 20.0888 37.2006C20.0888 37.2006 20.0888 37.2006 20.0888 37.2006C20.0888 37.2006 20.0888 37.2006 20.0888 37.2006C20.0888 37.2006 20.0888 37.2006 20.0888 37.2006C20.0888 37.2006 20.0888 37.2006 20.0888 37.2006C20.0888 37.2006 20.0888 37.2006 20.0888 37.2006C20.0888 37.2006 20.0888 37.2006 20.0888 37.2006C20.0888 37.2006 20.0888 37.2006 20.0888 37.2006C20.0888 37.2006 20.0888 37.2006 20.0888 37.2006C20.0888 37.2006 20.0888 37.2006 20.0888 37.2006C20.0888 37.2006 20.0888 37.2006 20.0888 37.2006C20.0888 37.2006 20.0888 37.2006 20.0888 37.2006C20.0888 37.2006 20.0888 37.2006 20.0888 37.2006C20.0888 37.2006 20.0888 37.2006 20.0888 37.2006C20.0888 37.2006 20.0888 37.2006 20.0888 37.2006C20.0888 37.2006 20.0888 37.2006 20.0888 37.2006C20.0888 37.2006 20.0888 37.2006 20.0888 37.2006C20.0888 37.2006 20.0888 37.2006 20.0888 37.2006C20.0888 37.2006 20.0888 37.2006 20.0888 37.2006C20.0888 37.2006 20.0888 37.2006 20.0888 37.2006C20.0888 37.2006 20.0888 37.2006 20.0888 37.2006C20.0888 37.2006 20.0888 37.2006 20.0888 37.2006C20.0888 37.2006 20.0888 37.2006 20.0888 37.2006C20.0888 37.2006 20.0888 37.2006 20.0888 37.2006C20.0888 37.2006 20.0888 37.2006 20.0888 37.2006C20.0888 37.2006 20.0888 37.2006 20.0888 37.2006C20.0888 37.2006 20.0888 37.2006 20.0888 37.2006C20.0888 37.2006 20.0888 37.2006 20.0888 37.2006C20.0888 37.2006 20.0888 37.2006 20.0888 37.2006C20.0888 37.2006 20.0888 37.2006 20.0888 37.2006C20.0888 37.2006 20.0888 37.2006 20.0888 37.2006C20.0888 37.2006 20.0888 37.2006 20.0888 37.2006C20.0888 37.2006 20.0888 37.2006 20.0888 37.2006C20.0888 37.2006 20.0888 37.2006 20.0888 37.2006C20.0888 37.2006 20.0888 37.2006 20.0888 37.2006C20.0888 37.2006 20.0888 37.2006 20.0888 37.2006C20.0888 37.2006 20.0888 37.2006 20.0888 37.2006C20.0888 37.2006 20.0888 37.2006 20.0888 37.2006C20.0888 37.2006 20.0888 37.2006 20.0888 37.2006C20.0888 37.2006 20.0888 37.2006 20.0888 37.2006C20.0888 37.2006 20.0888 37.2006 20.0888 37.2006C20.0888 37.2006 20.0888 37.2006 20.0888 37.2006C20.0888 37.2006 20.0888 37.2006 20.0888 37.2006C20.0888 37.2006 20.0888 37.2006 20.0888 37.2006C20.0888 37.2006 20.0888 37.2006 20.0888 37.2006C20.0888 37.2006 20.0888 37.2006 20.0888 37.2006C20.0888 37.2006 20.0888 37.2006 20.0888 37.2006C20.0888 37.2006 20.0888 37.2006 20.0888 37.2006C20.0888 37.2006 20.0888 37.2006 20.0888 37.2006C20.0888 37.2006 20.0888 37.2006 20.0888 37.2006C20.0888 37.2006 20.0888 37.2006 20.0888 37.2006C20.0888 37.2006 20.0888 37.2006 20.0888 37.2006C20.0888 37.2006 20.0888 37.2006 20.0888 37.2006C20.0888 37.2006 20.0888 37.2006 20.0888 37.2006C20.0888 37.2006 20.0888 37.2006 20.0888 37.2006C20.0888 37.2006 20.0888 37.2006 20.0888 37.2006C20.0888 37.2006 20.0888 37.2006 20.0888 37.2006C20.0888 37.2006 20.0888 37.2006 20.0888 37.2006C20.0888 37.2006 20.0888 37.2006 20.0888 37.2006C20.0888 37.2006 20.0888 37.2006 20.0888 37.2006C20.0888 37.2006 20.0888 37.2006 20.0888 37.2006C20.0888 37.2006 20.0888 37.2006 20.0888 37.2006C20.0888 37.2006 20.0888 37.2006 20.0888 37.2006C20.0888 37.2006 20.0888 37.2006 20.0888 37.2006C20.0888 37.2006 20.0888 37.2006 20.0888 37.2006C20.0888 37.2006 20.0888 37.2006 20.0888 37.2006C20.0888 37.2006 20.0888 37.2006 20.0888 37.2006C20.0888 37.2006 20.0888 37.2006 20.0888 37.2006C20.0888 37.2006 20.0888 37.2006 20.0888 37.2006C20.0888 37.2006 20.0888 37.2006 20.0888 37.2006C20.0888 37.2006 20.0888 37.2006 20.0888 37.2006C20.0888 37.2006 20.0888 37.2006 20.0888 37.2006C20.0888 37.2006 20.0888 37.2006 20.0888 37.2006C20.0888 37.2006 20.0888 37.2006 20.0888 37.2006C20.0888 37.2006 20.0888 37.2006 20.0888 37.2006C20.0888 37.2006 20.0888 37.2006 20.0888 37.2006C20.0888 37.2006 20.0888 37.2006 20.0888 37.2006C20.0888 37.2006 20.0888 37.2006 20.0888 37.2006C20.0888 37.2006 20.0888 37.2006 20.0888 37.2006C20.0888 37.2006 20.0888 37.2006 20.0888 37.2006C20.0888 37.2006 20.0888 37.2006 20.0888 37.2006C20.0888 37.2006 20.0888 37.2006 20.0888 37.2006C20.0888 37.2006 20.0888 37.2006 20.0888 37.2006C20.0888 37.2006 20.0888 37.2006 20.0888 37.2006C20.0888 37.2006 20.0888 37.2006 20.0888 37.2006C20.0888 37.2006 20.0888 37.2006 20.0888 37.2006C20.0888 37.2006 20.0888 37.2006 20.0888 37.2006C20.0888 37.2006 20.0888 37.2006 20.0888 37.2006C20.0888 37.2006 20.0888 37.2006 20.0888 37.2006C20.0888 37.2006 20.0888 37.2006 20.0888 37.2006C20.0888 37.2006 20.0888 37.2006 20.0888 37.2006C20.0888 37.2006 20.0888 37.2006 20.0888 37.2006C20.0888 37.2006 20.0888 37.2006 20.0888 37.2006C20.0888 37.2006 20.0888 37.2006 20.0888 37.2006C20.0888 37.2006 20.0888 37.2006 20.0888 37.2006C20.0888 37.2006 20.0888 37.2006 20.0888 37.2006C20.0888 37.2006 20.0888 37.2006 20.0888 37.2006C20.0888 37.2006 20.0888 37.2006 20.0888 37.2006C20.0888 37.2006 20.0888 37.2006 20.0888 37.2006C20.0888 37.2006 20.0888 37.2006 20.0888 37.2006C20.0888 37.2006 20.0888 37.2006 20.0888 37.2006C20.0888 37.2006 20.0888 37.2006 20.0888 37.2006C20.0888 37.2006 20.0888 37.2006 20.0888 37.2006C20.0888 37.2006 20.0888 37.2006 20.0888 37.2006C20.0888 37.2006 20.0888 37.2006 20.0888 37.2006C20.0888 37.2006 20.0888 37.2006 20.0888 37.2006C20.0888 37.2006 20.0888 37.2006 20.0888 37.2006C20.0888 37.2006 20.0888 37.2006 20.0888 37.2006C20.0888 37.2006 20.0888 37.2006 20.0888 37.2006C20.0888 37.2006 20.0888 37.2006 20.0888 37.2006C20.0888 37.2006 20.0888 37.2006 20.0888 37.2006C20.0888 37.2006 20.0888 37.2006 20.0888 37.2006C20.0888 37.2006 20.0888 37.2006 20.0888 37.2006C20.0888 37.2006 20.0888 37.2006 20.0888 37.2006C20.0888 37.2006 20.0888 37.2006 20.0888 37.2006C20.0888 37.2006 20.0888 37.2006 20.0888 37.2006C20.0888 37.2006 20.0888 37.2006 20.0888 37.2006C20.0888 37.2006 20.0888 37.2006 20.0888 37.2006C20.0888 37.2006 20.0888 37.2006 20.0888 37.2006C20.0888 37.2006 20.0888 37.2006 20.0888 37.2006C20.0888 37.2006 20.0888 37.2006 20.0888 37.2006C20.0888 37.2006 20.0888 37.2006 20.0888 37.2006C20.0888 37.2006 20.0888 37.2006 20.0888 37.2006C20.0888 37.2006 20.0888 37.2006 20.0888 37.2006C20.0888 37.2006 20.0888 37.2006 20.0888 37.2006C20.0888 37.2006 20.0888 37.2006 20.0888 37.2006C20.0888 37.2006 20.0888 37.2006 20.0888 37.2006C20.0888 37.2006 20.0888 37.2006 20.0888 37.2006C20.0888 37.2006 20.0888 37.2006 20.0888 37.2006C20.0888 37.2006 20.0888 37.2006 20.0888 37.2006C20.0888 37.2006 20.0888 37.2006 20.0888 37.2006C20.0888 37.2006 20.0888 37.2006 20.0888 37.2006C20.0888 37.2006 20.0888 37.2006 20.0888 37.2006C20.0888 37.2006 20.0888 37.2006 20.0888 37.2006C20.0888 37.2006 20.0888 37.2006 20.0888 37.2006C20.0888 37.2006 20.0888 37.2006 20.0888 37.2006C20.0888 37.2006 20.0888 37.2006 20.0888 37.2006C20.0888 37.2006 20.0888 37.2006 20.0888 37.2006C20.0888 37.2006 20.0888 37.2006 20.0888 37.2006C20.0888 37.2006 20.0888 37.2006 20.0888 37.2006V40.1767ZM20.0881 40.1767H20.0888V37.2006H20.0881V40.1767ZM21.5761 58.0334V38.6887H18.6V58.0334H21.5761ZM17.112 56.5453C17.112 58.189 18.4444 59.5214 20.0881 59.5214V56.5453L20.0881 56.5453H17.112ZM7.35248 36.0601C11.7038 40.8256 17.112 46.7995 17.112 56.5453H20.0881C20.0881 45.5435 13.8893 38.8054 9.55024 34.0533L7.35248 36.0601ZM7.35894 36.0671L7.35899 36.0671L9.54373 34.0463L9.54368 34.0462L7.35894 36.0671ZM4.00804 32.1293C4.90777 33.3859 6.11171 34.7012 7.35243 36.06L9.55019 34.0533C8.27256 32.654 7.2031 31.4795 6.42781 30.3967L4.00804 32.1293ZM0.000240803 20.0882C0.000240803 24.6159 1.49992 28.7976 4.02901 32.1578L6.40684 30.3681C4.25261 27.5059 2.97632 23.9482 2.97632 20.0882H0.000240803ZM20.0888 -0.000369549C8.99419 -0.000369549 0.000240803 8.99358 0.000240803 20.0882H2.97632C2.97632 10.6372 10.6378 2.97571 20.0888 2.97571V-0.000369549ZM40.1773 20.0882C40.1773 8.99358 31.1834 -0.000369549 20.0888 -0.000369549V2.97571C29.5397 2.97571 37.2012 10.6372 37.2012 20.0882H40.1773ZM36.1363 32.1741C38.6728 28.8111 40.1773 24.6232 40.1773 20.0882H37.2012C37.2012 23.9545 35.9208 27.5175 33.7602 30.382L36.1363 32.1741ZM32.8245 36.0601C34.0601 34.7069 35.259 33.3971 36.1571 32.1458L33.7394 30.4104C32.9646 31.4898 31.8988 32.6603 30.6268 34.0533L32.8245 36.0601ZM23.065 56.5453C23.065 46.7995 28.4732 40.8256 32.8245 36.0601L30.6268 34.0533C26.2877 38.8054 20.0889 45.5435 20.0889 56.5453H23.065ZM20.0889 59.5214C21.7326 59.5214 23.065 58.189 23.065 56.5453H20.0889L20.0889 56.5453V59.5214ZM18.6009 38.6887V58.0334H21.577V38.6887H18.6009Z" fill="url(#paint0_linear_95_398)" mask="url(#path-2-outside-1_95_398)"/>
<circle cx="20.0885" cy="20.0886" r="6.69618" fill="black" fill-opacity="0.4"/>
</g>
<defs>
<filter id="filter0_f_95_398" x="10.4163" y="52.082" width="19.3445" height="13.3923" filterUnits="userSpaceOnUse" color-interpolation-filters="sRGB">
<feFlood flood-opacity="0" result="BackgroundImageFix"/>
<feBlend mode="normal" in="SourceGraphic" in2="BackgroundImageFix" result="shape"/>
<feGaussianBlur stdDeviation="1.48804" result="effect1_foregroundBlur_95_398"/>
</filter>
<linearGradient id="paint0_linear_95_398" x1="20.0888" y1="1.48767" x2="20.0888" y2="58.0332" gradientUnits="userSpaceOnUse">
<stop stop-color="white"/>
<stop offset="1" stop-color="white" stop-opacity="0.35"/>
</linearGradient>
<clipPath id="clip0_95_398">
<rect width="40.1771" height="63.9857" fill="white"/>
</clipPath>
</defs>
</svg>
